<?xml version="1.0" standalone="no"?>
<!DOCTYPE svg PUBLIC "-//W3C//DTD SVG 1.1//EN" "http://www.w3.org/Graphics/SVG/1.1/DTD/svg11.dtd" >
<!--
2013-9-30: Created.
-->
<svg>
<metadata>
Created by iconfont
</metadata>
<defs>

<font id="iconfont" horiz-adv-x="1024" >
  <font-face
    font-family="iconfont"
    font-weight="500"
    font-stretch="normal"
    units-per-em="1024"
    ascent="896"
    descent="-128"
  />
    <missing-glyph />
    
    <glyph glyph-name="x" unicode="x" horiz-adv-x="1001"
d="M281 543q-27 -1 -53 -1h-83q-18 0 -36.5 -6t-32.5 -18.5t-23 -32t-9 -45.5v-76h912v41q0 16 -0.5 30t-0.5 18q0 13 -5 29t-17 29.5t-31.5 22.5t-49.5 9h-133v-97h-438v97zM955 310v-52q0 -23 0.5 -52t0.5 -58t-10.5 -47.5t-26 -30t-33 -16t-31.5 -4.5q-14 -1 -29.5 -0.5
t-29.5 0.5h-32l-45 128h-439l-44 -128h-29h-34q-20 0 -45 1q-25 0 -41 9.5t-25.5 23t-13.5 29.5t-4 30v167h911zM163 247q-12 0 -21 -8.5t-9 -21.5t9 -21.5t21 -8.5q13 0 22 8.5t9 21.5t-9 21.5t-22 8.5zM316 123q-8 -26 -14 -48q-5 -19 -10.5 -37t-7.5 -25t-3 -15t1 -14.5
t9.5 -10.5t21.5 -4h37h67h81h80h64h36q23 0 34 12t2 38q-5 13 -9.5 30.5t-9.5 34.5q-5 19 -11 39h-368zM336 498v228q0 11 2.5 23t10 21.5t20.5 15.5t34 6h188q31 0 51.5 -14.5t20.5 -52.5v-227h-327z" />
    

    
    <glyph glyph-name="lianxiwomen" unicode="&#58888;" d="M512 812C230.4 812 0 581.6 0 300s230.4-512 512-512 512 230.4 512 512S793.6 812 512 812zM512-148c-249.6 0-448 198.4-448 448 0 249.6 198.4 448 448 448s448-198.4 448-448C960 50.4 761.6-148 512-148zM691.2 261.6c-51.2 0-96-25.6-121.6-64C486.4 210.4 422.4 274.4 409.6 364c38.4 25.6 64 70.4 64 115.2C473.6 556 409.6 620 332.8 620 256 620 192 556 192 479.2 192 216.8 467.2-20 691.2-20l0 0c76.8 0 140.8 64 140.8 140.8C832 197.6 768 261.6 691.2 261.6zM691.2 31.2 691.2 31.2c-198.4 0-448 217.6-448 448 0 51.2 44.8 96 96 96s96-44.8 96-96c0-32-19.2-64-51.2-83.2L364.8 389.6l0-12.8c0-121.6 102.4-217.6 217.6-224l12.8 0 6.4 12.8c12.8 32 44.8 51.2 83.2 51.2 51.2 0 96-44.8 96-96C787.2 69.6 742.4 31.2 691.2 31.2z"  horiz-adv-x="1024" />

    
    <glyph glyph-name="fankui" unicode="&#58915;" d="M772.868891 700.589584c38.745443 0 70.191642-31.348985 70.191642-69.979818l0-342.899674 6.709819 16.362666-398.086577-403.481448 16.696264 6.964622L187.288059-92.444067c-38.763862 0-70.15685 31.226189-70.15685 69.750597L117.131209 723.915849l-23.423479-23.326265L772.868891 700.589584 772.868891 700.589584zM70.293461 747.243137l0-23.326265L70.293461-22.69347c0-64.319911 52.374858-116.40415 116.994598-116.40415l281.090956 0 9.821693 0 6.885827 6.983041L883.180276 271.384265l6.708795 6.78759 0 9.538237 0 342.899674c0 64.373123-52.400441 116.633371-117.02018 116.633371L93.708753 747.243137 70.293461 747.243137 70.293461 747.243137zM806.624692 137.860203l-11.285021-11.248182 11.285021-11.249205 63.817468-63.544245 11.274788-11.249205 11.293207 11.249205 47.861054 47.675836 11.283997 11.231809-11.283997 11.231809-63.825654 63.579037-11.283997 11.231809-11.283997-11.231809L806.624692 137.860203 806.624692 137.860203zM854.476537 163.056048l63.845097-63.561641 0 22.462594-47.87845-47.675836 22.567995 0-63.825654 63.579037 0-22.497387 47.861054 47.693232L854.476537 163.056048 854.476537 163.056048zM631.110283-36.975754l-3.430122-3.385097-0.942465-4.724605-15.957437-79.465866-4.681626-23.379477 23.450085 4.689812 79.784114 15.885805 4.743024 0.934279 3.429099 3.402493 175.505199 174.835957 11.283997 11.231809-11.283997 11.231809-63.825654 63.579037-11.285021 11.249205L806.624692 137.860203 631.110283-36.975754 631.110283-36.975754zM806.624692 115.361793l63.817468-63.544245 0 22.462594L694.928774-100.536372l8.163937 4.355191-79.792301-15.904225 18.777669-18.706037 15.956414 79.46382-4.371564-8.127098 175.522596 174.817538L806.624692 115.362816 806.624692 115.361793zM476.446761 148.175129c17.648962 0 31.974225-14.246469 31.974225-31.825846l0-8.445346c0-17.579377-14.201443-31.843242-31.974225-31.843242l0 0c-17.667382 0-32.000831 14.263865-32.000831 31.843242l0 8.445346C444.444906 133.92866 458.65556 148.175129 476.446761 148.175129L476.446761 148.175129 476.446761 148.175129zM327.883167 402.914928c0 0 2.50403-21.986757 27.188222-21.986757 24.684192 0 26.13831 21.986757 26.13831 21.986757-1.63115 71.231321 31.498388 105.066941 99.336426 101.691053 45.154409-5.077645 68.533886-30.458709 70.111824-76.230172-3.12927-20.390399-20.275789-46.750767-50.76929-78.919421-40.384779-40.693818-60.590983-77.137845-60.590983-109.315708l0-33.006741c0 0 3.102664-19.676132 25.425066-19.676132 22.321378 0 25.425066 19.676132 25.425066 19.676132l0 22.921036c0 26.888394 19.340487 59.20645 58.087976 96.621595 40.534182 37.184901 60.643172 71.160713 60.643172 101.698217-3.341095 84.667332-47.631834 128.790248-133.24163 132.227534C377.153314 562.251889 327.883167 509.691813 327.883167 402.914928L327.883167 402.914928zM327.883167 402.914928"  horiz-adv-x="1024" />

    
    <glyph glyph-name="warn2" unicode="&#59163;" d="M510.775-160.037c-247.081 0-447.392 200.447-447.392 447.694 0 247.25 200.311 447.699 447.392 447.699 247.076 0 447.386-200.448 447.386-447.699 0-247.247-200.31-447.694-447.386-447.694v0zM510.775 675.662c-214.151 0-387.74-173.706-387.74-388.005 0-214.295 173.589-388.002 387.74-388.002 214.146 0 387.736 173.707 387.736 388.002 0 214.299-173.591 388.005-387.736 388.005v0zM510.775 19.041c-32.96 0-59.653 26.71-59.653 59.693 0 32.978 26.693 59.694 59.653 59.694 32.956 0 59.652-26.715 59.652-59.694 0-32.983-26.696-59.693-59.652-59.693v0zM510.775 198.12c-16.465 0-29.827 26.71-29.827 59.693l-29.825 268.616c0 32.982 26.693 59.693 59.653 59.693 32.956 0 59.652-26.71 59.652-59.693l-29.827-268.616c-0.001-32.983-13.363-59.693-29.824-59.693v0zM510.775 198.12z"  horiz-adv-x="1024" />

    
    <glyph glyph-name="jiaruwomen" unicode="&#58891;" d="M878.467413 69.794133l77.568 0 0 95.924907-111.91296 0 0 111.91296-95.924907 0 0-103.016107C807.488853 152.859307 867.328 127.404373 878.467413 69.794133zM844.12416 69.794133l34.343253 0c-11.14112 57.61024-70.97856 83.065173-130.26816 104.82176l0-8.896853-111.91296 0 0-95.924907 111.91296 0 0-111.91296 38.38464 0c24.157867 2.786987 42.978987 6.126933 57.540267 10.042027L844.12416 69.794133zM844.12416-32.0768c-14.56128-3.915093-33.3824-7.25504-57.540267-10.042027l57.540267 0L844.12416-32.0768zM724.005547 573.467307C714.752 704.3328 649.598293 805.546667 512.672427 805.546667l-0.541013 0-0.459093 0c-136.966827 0-202.120533-101.220693-211.339947-232.07936-18.507093-7.06048-29.533867-36.307627-25.173333-69.346987 4.03968-30.779733 20.19328-54.913707 38.2464-59.707733 15.786667-50.966187 43.83232-94.378667 79.58016-124.525227 2.312533-5.34016 27.492693-78.533973-22.227627-110.67392-63.112533-40.82688-197.005653-50.42688-210.0736-139.593387-11.153067-75.467093-78.85312-108.960427 351.440213-110.726827l0.047787 0c76.02688 0.31232 136.490667 1.616213 184.485547 3.964587l0 6.116693L696.65792 6.826667 634.2144 6.826667l-56.792747 0 0 43.234987L577.421653 191.146667l0 43.234987 53.59104 0c-17.4592 35.157333-1.503573 81.3056 0.351573 85.505707 35.754667 30.098773 63.793493 73.55904 79.53408 124.525227 18.0992 4.794027 34.245973 28.928 38.239573 59.707733C753.498453 537.15968 742.4256 566.406827 724.005547 573.467307z"  horiz-adv-x="1024" />

    
    <glyph glyph-name="zixun" unicode="&#58930;" d="M797.878734 734.50733c-74.708658 55.489881-165.217518 85.946259-260.257452 85.946259-241.290903 0-436.892734-195.601832-436.892734-436.892734s195.601832-436.892734 436.892734-436.892734 436.892734 195.601832 436.892734 436.892734c0 82.554711-22.961641 161.794441-65.632999 230.418129-7.882085 12.674393-24.547066 16.561387-37.221459 8.679302-12.674393-7.882085-16.561387-24.547066-8.679302-37.221459 37.383605-60.115539 57.485175-129.477891 57.485175-201.875972 0-211.438067-171.406081-382.844148-382.844148-382.844148s-382.844148 171.406081-382.844148 382.844148 171.406081 382.844148 382.844148 382.844148c83.333911 0 162.560129-26.659465 228.030983-75.285176 11.98077-8.9 28.911489-6.400253 37.806986 5.580516C812.359251 708.681114 809.859504 725.611834 797.878734 734.50733zM491.522342 487.153978l162.145757 0c11.192561 0 20.26822 9.075658 20.26822 20.26822s-9.075658 20.26822-20.26822 20.26822l-162.145757 0c-11.192561 0-20.26822-9.075658-20.26822-20.26822S480.329781 487.153978 491.522342 487.153978zM489.63965 370.048709l162.145757 0c11.192561 0 20.26822 9.075658 20.26822 20.26822 0 11.192561-9.075658 20.26822-20.26822 20.26822l-162.145757 0c-11.192561 0-20.26822-9.075658-20.26822-20.26822C469.37143 379.124367 478.447088 370.048709 489.63965 370.048709zM489.63965 243.935342l90.080976 0c11.192561 0 20.26822 9.075658 20.26822 20.26822 0 11.192561-9.075658 20.26822-20.26822 20.26822l-90.080976 0c-11.192561 0-20.26822-9.075658-20.26822-20.26822C469.37143 253.011001 478.447088 243.935342 489.63965 243.935342zM722.318811 631.28354 424.988533 631.28354c-19.894384 0-36.000862-16.147015-36.000862-36.063919l0-126.081838L325.885947 469.137783c-16.147015 0-29.235781-13.088766-29.235781-29.231277l0-265.968586c0-16.147015 13.084262-29.235781 29.240285-29.235781l90.139529 0 0 1.310678c2.869079-0.73416 5.855263-1.166549 8.954049-1.166549l297.330278 0c19.894384 0 36.000862 16.147015 36.000862 36.063919L758.315169 595.219621C758.319673 615.168053 742.199682 631.28354 722.318811 631.28354zM388.987671 185.243082l-51.796561 0 0 243.362765 51.796561 0L388.987671 185.243082zM717.783234 590.7471l0-405.364393-288.259124 0 0 405.364393L717.783234 590.7471z"  horiz-adv-x="1067" />

    
    <glyph glyph-name="xinghaoqi" unicode="&#59004;" d="M794.177196 780.523989 511.997442 780.523989 229.829967 780.523989c-25.698289 0-46.537919-20.819165-46.537919-46.537919L183.292048 29.054989c0-16.039301 5.089925-31.269168 20.458961-38.545898 19.168572-9.081843 49.337685 3.518127 82.496899 19.928888 53.318346 26.377764 132.233674 65.428152 181.241854 89.687672 26.699082 13.208836 62.145385 13.239536 91.694375-1.390673 49.247634-24.366967 127.104863-62.83714 178.573071-88.295975 33.148981-16.408715 63.317071-29.008684 82.495876-19.926842 15.370059 7.274684 20.458961 22.506597 20.458961 38.545898L840.712045 733.986069C840.714092 759.703801 819.874461 780.523989 794.177196 780.523989zM728.189296 473.137133l-62.878073-80.546477c-8.466835-10.869558-15.019065-31.04711-14.539134-44.808532l3.530406-102.138238c0.479931-13.776771-9.740852-21.195741-22.668279-16.477276l-96.054683 34.92851c-12.950963 4.711302-34.161031 4.711302-47.098691 0l-96.055706-34.92851c-12.94994-4.718465-23.169699 2.700505-22.679535 16.477276l3.549849 102.138238c0.460488 13.760398-6.089695 33.938973-14.559601 44.798299l-62.917982 80.556711c-8.489348 10.859325-4.579295 22.858614 8.66945 26.659173l98.226139 28.199249c13.260002 3.800559 30.408567 16.249079 38.118156 27.679409l57.187467 84.695984c7.697309 11.43954 20.309558 11.43954 28.028357 0l57.148581-84.686774c7.708566-11.43954 24.848944-23.88806 38.1069-27.688619l98.226139-28.199249C732.769614 495.995747 736.6899 483.996458 728.189296 473.137133z"  horiz-adv-x="1024" />

    
    <glyph glyph-name="wodezhuangbei" unicode="&#58988;" d="M510.4 495.616l0-415.936 331.136 62.848L841.536 345.216c0 8.512 7.424 15.104 15.808 14.144l40.768-6.336c7.168-0.832 12.608-6.912 12.608-14.08l0-235.456c0-6.72-4.672-12.48-11.2-13.888L536.96 11.648c-17.536-3.776-35.648-3.776-53.12-0.128l-358.592 75.456C118.72 88.32 114.048 93.888 113.92 100.48L107.712 339.584C107.52 347.072 113.216 353.408 120.64 354.112l304.64 26.752c5.248 0.448 9.856 3.84 11.84 8.768l45.888 111.424C488.96 515.392 510.4 511.168 510.4 495.616L510.4 495.616zM104.256 631.808 8.704 427.52C4.032 417.536 12.032 406.272 22.976 407.36l358.976 36.288C387.008 444.16 391.424 447.296 393.472 451.968l115.52 260.224 122.24-268.352c2.112-4.672 6.656-7.872 11.776-8.256l358.272-28.8c8.576-0.704 15.232 6.144 15.36 13.952L1016.64 420.928c0 1.92-0.384 3.904-1.28 5.888l-93.44 204.864c-1.92 4.224-5.824 7.232-10.432 8.064L508.992 712.192 114.56 639.744C110.016 638.912 106.24 635.968 104.256 631.808z"  horiz-adv-x="1024" />

    
    <glyph glyph-name="xuqiu1" unicode="&#58940;" d="M413.465798 784.798372l176.796751 0 1.015784 0.176111c16.964852 2.918414 31.162243 11.107583 41.669162 24.787648 5.698454 7.420256 10.313511 16.538726 12.797936 25.564424l0.443423 1.611732 0.717024 1.509524c6.34472 13.364008 16.994728 23.194785 30.365026 29.352387 6.500389 2.995462 14.406523 5.508191 21.535881 6.162319l5.138673 0.468582 178.40691 0c20.142716 0 36.788367-16.195938 36.788367-36.415703l0-878.085602c0-20.221337-16.644078-36.42042-36.788367-36.42042l-88.676694 0c-6.034953 0-11.428357-4.583608-11.428357-10.785237s5.39655-10.782092 11.428357-10.782092l88.676694 0c32.201614 0 59.635647 25.378878 59.635647 57.989322L941.988013 838.020113C941.986441 870.625839 914.547691 896 882.350794 896L143.809712 896C111.617533 896 84.175638 870.624267 84.175638 838.020113l0-878.090319c0-32.607299 27.437178-57.989322 59.634074-57.989322l482.912566 0 0.14938-0.003145c26.83494-0.411974 71.823483-7.003564 93.007142-23.856775 2.09132-1.668339 4.679526-2.537888 7.347924-2.537888 3.453037 0 6.781853 1.467069 8.998967 4.133895 3.811549 4.589898 3.014331 11.201929-1.627456 14.898691-26.089613 20.75596-74.918008 28.514286-107.542604 28.934123L143.809712-76.490626c-20.141143 0-36.783649 16.202228-36.783649 36.42042L107.026063 838.020113c0 20.215047 16.645651 36.410985 36.783649 36.410985l155.974749 0 5.144962-0.468582c7.127785-0.654127 15.027629-3.165284 21.528019-6.160746 13.370298-6.159174 24.017162-15.988379 30.366598-29.350814l0.718596-1.511097 0.443423-1.614877c2.48757-9.028843 7.096337-18.147313 12.796364-25.572286 10.502201-13.680064 24.690158-21.869234 41.651865-24.776641L413.465798 784.798372 413.465798 784.798372zM624.130929 842.897763l-0.232718-1.176171-0.05818-0.250015c-1.259509-5.506619-4.030116-11.37175-7.181248-16.059138-6.233078-9.27414-15.032347-15.708488-25.89935-18.464942l-2.314604-0.586513L415.231627 806.360984l-2.377501 0.622679c-16.334311 4.273841-28.941985 17.988499-32.901341 34.258341l-0.14309 0.583368-0.176111 0.992198-0.440278 1.050377c-0.468582 1.116419-0.963894 2.220259-1.478076 3.314664l-12.841964 27.251632 273.955085 0-12.815233-27.240625c-0.512609-1.094405-1.003205-2.199817-1.470214-3.316236L624.130929 842.897763 624.130929 842.897763zM747.488945 631.636685c6.03338 0 11.425212-4.58518 11.425212-10.782092 0-6.200057-5.388687-10.786809-11.425212-10.786809L180.997474 610.067783c-6.03338 0-11.422068 4.586753-11.422068 10.786809 0 6.196912 5.391832 10.782092 11.422068 10.782092L747.488945 631.636685 747.488945 631.636685zM747.488945 407.439297c6.031808 0 11.425212-4.58518 11.425212-10.78052 0-6.200057-5.388687-10.786809-11.425212-10.786809L180.997474 385.871967c-6.03338 0-11.422068 4.586753-11.422068 10.786809 0 6.19534 5.391832 10.78052 11.422068 10.78052L747.488945 407.439297 747.488945 407.439297zM180.997474 492.073296c-6.030235 0-11.422068 4.58518-11.422068 10.782092 0 6.196912 5.391832 10.78052 11.422068 10.78052l377.66098 0c6.031808 0 11.428357-4.580463 11.428357-10.78052 0-6.200057-5.394977-10.782092-11.428357-10.782092L180.997474 492.073296z"  horiz-adv-x="1024" />

    
    <glyph glyph-name="jinrong" unicode="&#58943;" d="M917.090597 626.983034 726.799646 626.983034c26.100448-23.359011 48.484248-50.732451 65.995063-81.32419L917.090597 545.658843c22.493294 0 40.71326 18.201547 40.71326 40.658002C957.803857 608.76409 939.584913 626.983034 917.090597 626.983034zM917.090597 524.430356 803.764552 524.430356c12.232602-25.50693 21.228487-52.733015 26.471908-81.325214l86.854137 0c22.493294 0 40.71326 18.201547 40.71326 40.666188C957.803857 506.228809 939.584913 524.430356 917.090597 524.430356zM917.090597 729.499895 616.03903 729.499895c-17.511839 0-32.273031-11.126408-38.037315-26.621311 45.025473-9.555633 86.446861-28.629038 122.54808-54.712089l216.579687 0c22.49227 0 40.711214 18.200524 40.711214 40.667212C957.840696 711.300394 939.584913 729.499895 917.090597 729.499895zM616.03903 750.701776 917.090597 750.701776c22.493294 0 40.71326 18.200524 40.71326 40.666188 0 22.439058-18.219967 40.658002-40.71326 40.658002L616.03903 832.025966c-22.457478 0-40.677445-18.218944-40.677445-40.684608C575.361585 768.883881 593.580528 750.701776 616.03903 750.701776zM917.090597 421.941124l-83.620489 0c1.414209-12.259208 2.307555-24.651446 2.307555-37.273928 0-14.965853-1.37737-29.632901-3.347235-44.060495l84.659145 0c22.457478 0 40.675398 18.219967 40.675398 40.694841C957.765995 403.760043 939.584913 421.941124 917.090597 421.941124zM917.090597 319.415053l-87.894839 0c-5.91164-28.740578-15.802918-55.93801-28.741601-81.332377L917.090597 238.082676c22.493294 0 40.71326 18.200524 40.71326 40.655955C957.803857 301.214529 939.584913 319.415053 917.090597 319.415053zM917.090597 216.908424 788.668739 216.908424c-18.664082-30.78719-41.977044-58.31822-69.416999-81.332377L917.090597 135.576047c22.493294 0 40.71326 18.198477 40.71326 40.655955S939.584913 216.908424 917.090597 216.908424zM103.752504 347.392244l83.619466 0c-1.402953 12.252045-2.296299 24.651446-2.296299 37.274952 0 14.963807 1.366114 29.623691 3.328815 44.050262l-84.651982 0c-22.465664-0.020466-40.684608-18.218944-40.684608-40.686654C63.066873 365.594815 81.28684 347.392244 103.752504 347.392244zM103.752504 244.867196l113.336278 0c-12.19474 25.50693-21.23872 52.721759-26.472931 81.296561l-86.863347 0c-22.465664 0-40.684608-18.163685-40.684608-40.639582C63.066873 263.050324 81.28684 244.867196 103.752504 244.867196zM103.752504 449.900919l87.923492 0c5.865591 28.731368 15.782451 55.939033 28.694529 81.332377L103.752504 531.233296c-22.465664 0.01842-40.684608-18.181081-40.684608-40.666188S81.28684 449.900919 103.752504 449.900919zM103.752504 552.417781 232.201991 552.417781c18.646686 30.765701 41.958624 58.306964 69.360717 81.323167L103.752504 633.740948c-22.465664 0-40.684608-18.200524-40.684608-40.638559C63.066873 570.637748 81.28684 552.417781 103.752504 552.417781zM103.752504 142.358521 294.071084 142.358521c-26.119891 23.350824-48.483224 50.715055-65.996087 81.295538L103.752504 223.654059c-22.465664 0-40.684608-18.198477-40.684608-40.636512C63.066873 160.540625 81.28684 142.358521 103.752504 142.358521zM103.752504 39.815053l301.0618 0c17.530258 0 32.30987 11.117199 38.035268 26.621311-45.025473 9.555633-86.444814 28.630061-122.510218 54.712089L103.752504 121.148453c-22.465664 0.01842-40.684608-18.181081-40.684608-40.655955S81.28684 39.815053 103.752504 39.815053zM404.814304 18.621359 103.752504 18.621359c-22.465664 0-40.684608-18.182105-40.684608-40.674375 0-22.441105 18.218944-40.639582 40.684608-40.639582l301.0618 0c22.475897 0 40.675398 18.219967 40.675398 40.677445C445.489702 0.440277 427.290201 18.621359 404.814304 18.621359zM510.426667 669.34177c-156.977217 0-284.675598-127.69838-284.675598-284.674575 0-156.977217 127.69838-284.694017 284.675598-284.694017 156.995637 0 284.673551 127.697357 284.673551 284.694017C795.100218 541.663856 667.422304 669.34177 510.426667 669.34177zM510.426667 181.323974c-112.118544 0-203.360618 91.206258-203.360618 203.343221 0 112.128777 91.242074 203.351408 203.360618 203.351408 112.156406 0 203.359594-91.222631 203.359594-203.351408C713.785238 272.530233 622.582049 181.323974 510.426667 181.323974zM522.305205 412.134781l0 70.28067c40.898479-0.75213 40.60172-40.313148 64.61974-40.313148 12.567223 0 23.38664 8.467859 23.38664 22.903639 0 36.242436-59.193147 54.348816-88.007403 55.111179l0 19.696598c0 6.303566-4.851495 12.586666-11.172457 12.586666-6.246261 0-11.024078-6.2831-11.024078-12.586666l0-19.696598c-46.215578-1.431605-88.025822-27.383674-88.025822-77.633125 0-41.065278 33.202193-65.103764 88.025822-75.067696l0-77.29748c-61.45977 2.582825-29.260417 53.614082-70.680782 53.614082-13.979386 0-22.902616-8.550747-22.902616-23.293519 0-29.241998 31.082926-66.590628 93.584422-68.115354l0-22.883173c0-6.28617 4.77884-12.56927 11.024078-12.56927 6.320962 0 11.172457 6.284123 11.172457 12.56927l0 22.883173c55.06513 3.328815 92.022857 28.517497 92.022857 78.059843C614.328062 387.371794 571.123051 401.760502 522.305205 412.134781zM500.10867 416.19526c-27.736715 5.578042-41.494043 16.250102-41.494043 34.792411 0 15.876596 16.266475 30.694069 41.494043 31.447223L500.10867 416.19526zM522.305205 290.135192l0 73.208349c19.891026-4.406356 45.509497-11.80486 45.509497-36.94033C567.814702 302.013731 544.464901 291.60466 522.305205 290.135192z"  horiz-adv-x="1024" />

    
    <glyph glyph-name="shifanqiyechaxun" unicode="&#59175;" d="M545.011 137.078l-8.698-0.537c-1.86-0.115-3.718-0.24-5.576-0.365-6.393-0.431-12.43-0.838-18.531-0.838-6.101 0-12.138 0.407-18.53 0.838-1.859 0.125-3.718 0.25-5.579 0.365l-8.697 0.537L338.09-104.074c-23.062 25.735-73.507 82.008-123.638 137.801l-3.114 3.466-4.563 0.942c-75.081 15.495-150.083 30.641-184.5 37.568L175.686 337.54l-3.432 6.871c-25.913 51.879-39.052 107.105-39.052 164.146 0 50.363 10.008 99.211 29.745 145.188 19.073 44.43 46.386 84.337 81.178 118.614 34.808 34.291 75.343 61.213 120.479 80.019 46.737 19.473 96.397 29.346 147.601 29.346 51.191 0 100.845-9.873 147.579-29.346 45.136-18.807 85.672-45.729 120.482-80.02 34.797-34.278 62.113-74.186 81.19-118.614 19.741-45.979 29.752-94.827 29.752-145.188 0-56.989-13.141-112.217-39.056-164.151l-3.428-6.869 153.413-261.842c-34.41-6.938-109.414-22.102-184.497-37.56l-4.567-0.94-3.117-3.469c-50.13-55.793-100.575-112.065-123.638-137.801L545.011 137.078zM230.229 67.042c44.969-43.681 92.4-88.703 92.883-89.162l12.956-12.294 103.484 176.615-18.496 4.509c-83.853 20.443-158.848 69.287-211.172 137.534l-12.821 16.723L84.413 108.742l17.546-5.039C102.609 103.517 166.549 85.158 230.229 67.042zM814.522 284.189c-52.274-68.232-127.269-117.075-211.169-137.531l-18.498-4.51 103.487-176.561 12.953 12.292c0.483 0.459 47.915 45.481 92.884 89.162 63.676 18.113 127.611 36.421 128.261 36.606l17.563 5.03L827.343 300.923 814.522 284.189zM512.205 846.538c-184.077 0-333.834-150.033-333.834-334.449 0-184.443 149.757-334.499 333.834-334.499 184.076 0 333.834 150.056 333.834 334.499C846.039 696.505 696.281 846.538 512.205 846.538zM512.205 302.131c-115.687 0-209.805 94.119-209.805 209.805S396.518 721.74 512.205 721.74c56.041 0 108.726-21.818 148.35-61.437 39.63-39.623 61.455-92.314 61.455-148.368C722.01 396.25 627.892 302.131 512.205 302.131zM512.205 686.093c-96.031 0-174.158-78.126-174.158-174.157s78.127-174.157 174.158-174.157c96.03 0 174.156 78.126 174.156 174.157S608.235 686.093 512.205 686.093z"  horiz-adv-x="1025" />

    
    <glyph glyph-name="gerenzhongxin" unicode="&#58905;" d="M512 839.315424c61.4916 0 121.114327-12.030872 177.211445-35.757661 54.211926-22.92977 102.910848-55.767317 144.744924-97.601393C875.790446 664.122293 908.627992 615.423371 931.557762 561.211445c23.726789-56.097118 35.757661-115.719845 35.757661-177.211445s-12.030872-121.114327-35.757661-177.211445c-22.92977-54.211926-55.767317-102.910848-97.601393-144.744924-41.833217-41.833217-90.532998-74.671623-144.744924-97.601393-56.097118-23.726789-115.719845-35.757661-177.211445-35.757661S390.885673-59.284552 334.788555-35.557762c-54.211926 22.92977-102.910848 55.767317-144.744924 97.601393s-74.671623 90.532998-97.601393 144.744924c-23.726789 56.097118-35.757661 115.719845-35.757661 177.211445s12.030872 121.114327 35.757661 177.211445c22.92977 54.211926 55.767317 102.910848 97.601393 144.744924 41.833217 41.833217 90.532998 74.671623 144.744924 97.601393C390.885673 827.284552 450.5084 839.315424 512 839.315424M512 896c-282.769291 0-512-229.22985-512-512s229.22985-512 512-512S1024 101.230709 1024 384 794.77015 896 512 896L512 896zM262.782825 70.098852l498.435209 0C761.218034 71.067643 262.782825 70.098852 262.782825 70.098852L262.782825 70.098852zM820.273915 114.929481c-15.778066 108.615378-87.995075 199.021265-186.086017 240.731666C692.043097 394.727127 730.065565 460.750916 730.065565 535.622653c0 119.982353-97.628876 217.245356-218.065565 217.245356S293.935294 655.605006 293.935294 535.622653c0-74.871737 38.024186-140.896385 95.877667-179.95807C291.72116 313.955041 219.50501 223.545718 203.726944 114.929481c-2.075858-4.155151-3.247339-8.837641-3.247339-13.794106 0-17.140213 13.946123-31.036523 31.152469-31.036523 17.204628 0 31.150751 13.89631 31.150751 31.036523l0-31.036523c0 137.122567 111.580153 248.279303 249.217175 248.279303S761.218034 207.221419 761.218034 70.098852l0 31.036523c0-17.140213 13.946123-31.036523 31.152469-31.036523 17.204628 0 31.150751 13.89631 31.150751 31.036523C823.521254 106.091841 822.349773 110.77433 820.273915 114.929481L820.273915 114.929481zM512 380.448625c-86.021421 0-155.758051 69.477255-155.758051 155.174028 0 85.701067 69.736629 155.178322 155.758051 155.178322C598.026574 690.800975 667.758909 621.32372 667.758909 535.622653S598.026574 380.448625 512 380.448625L512 380.448625zM512 380.448625"  horiz-adv-x="1024" />

    
    <glyph glyph-name="yiyelianmeng" unicode="&#59092;" d="M722.051282 292.102564c-32.059077 0-62.910359 5.093744-91.897436 14.336l0 55.873641C658.615795 351.021949 689.572103 344.615385 722.051282 344.615385c137.767385 0 249.435897 111.668513 249.435897 249.435897C971.487179 731.818667 859.818667 843.487179 722.051282 843.487179 584.283897 843.487179 472.615385 731.818667 472.615385 594.051282c0-42.745436 10.791385-82.970256 29.748513-118.153846L446.358974 475.897436l0-4.621128c-16.75159 37.546667-26.25641 79.031795-26.25641 122.774974C420.102564 760.805744 555.270564 896 722.051282 896 888.805744 896 1024 760.805744 1024 594.051282 1024 427.296821 888.805744 292.102564 722.051282 292.102564zM722.051282 738.461538c79.766974 0 144.410256-64.643282 144.410256-144.410256S801.818256 449.641026 722.051282 449.641026c-28.435692 0-54.797128 8.507077-77.141333 22.711795l-221.262769-221.262769C437.851897 228.745846 446.358974 202.38441 446.358974 173.948718c0-79.766974-64.643282-144.410256-144.410256-144.410256S157.538462 94.181744 157.538462 173.948718 222.181744 318.358974 301.948718 318.358974c32.269128 0 61.781333-10.948923 85.832205-28.855795l218.742154 218.715897C588.589949 532.269949 577.641026 561.782154 577.641026 594.051282 577.641026 673.818256 642.284308 738.461538 722.051282 738.461538zM813.948718 594.051282C813.948718 644.804923 772.804923 685.948718 722.051282 685.948718 671.297641 685.948718 630.153846 644.804923 630.153846 594.051282s41.143795-91.897436 91.897436-91.897436C772.804923 502.153846 813.948718 543.297641 813.948718 594.051282zM210.051282 173.948718c0-50.753641 41.143795-91.897436 91.897436-91.897436 50.753641 0 91.897436 41.143795 91.897436 91.897436S352.702359 265.846154 301.948718 265.846154C251.195077 265.846154 210.051282 224.702359 210.051282 173.948718zM52.512821 173.948718c0-137.767385 111.668513-249.435897 249.435897-249.435897 137.767385 0 249.435897 111.668513 249.435897 249.435897 0 42.745436-10.791385 82.996513-29.748513 118.153846L577.641026 292.102564l0 4.621128c16.75159-37.546667 26.25641-79.031795 26.25641-122.774974C603.897436 7.194256 468.703179-128 301.948718-128 135.168-128 0 7.194256 0 173.948718 0 340.703179 135.168 475.897436 301.948718 475.897436c32.059077 0 62.910359-5.093744 91.897436-14.336l0-55.873641C365.384205 416.978051 334.427897 423.384615 301.948718 423.384615 164.181333 423.384615 52.512821 311.716103 52.512821 173.948718z"  horiz-adv-x="1024" />

    
    <glyph glyph-name="xingji" unicode="&#58897;" d="M866.461538 896 157.538462 896C70.892308 896 0 825.107692 0 738.461538l0-708.923077c0-86.646154 70.892308-157.538462 157.538462-157.538462l708.923077 0c86.646154 0 157.538462 70.892308 157.538462 157.538462L1024 738.461538C1024 825.107692 953.107692 896 866.461538 896zM701.046154 324.923077l43.323077-256L512 187.076923l-232.369231-122.092308 43.323077 256L137.846154 506.092308l259.938462 39.384615L512 777.846154l114.215385-236.307692 259.938462-39.384615L701.046154 324.923077z"  horiz-adv-x="1024" />

    
    <glyph glyph-name="faxian" unicode="&#59003;" d="M173.4144 664.93952c14.40256 0 26.41408 4.8128 36.02944 14.4128 12.01152 12.0064 16.80896 24.01792 16.80896 38.43072s-4.79744 26.42432-16.80896 36.02944c-9.61536 12.0064-21.62688 14.4128-36.02944 14.4128-14.42304 0-26.43456-2.4064-38.44096-14.4128-9.6-9.60512-16.80896-21.61664-16.80896-36.02944s7.21408-26.42432 16.80896-38.43072C146.98496 669.75232 158.99136 664.93952 173.4144 664.93952zM850.74432 465.5872c0 14.4128-4.79744 26.4192-16.80384 36.02944-9.62048 12.0064-21.632 16.8192-36.02944 16.8192-16.8192 0-26.43456-4.80768-38.44608-16.8192-9.59488-9.60512-14.40256-21.61664-14.40256-36.02944 0-14.41792 4.80768-26.42432 14.40256-38.43072 12.01152-9.60512 21.62688-14.41792 38.44608-14.41792 14.40256 0 26.40896 4.80768 36.02944 14.41792C845.952 439.16288 850.74432 451.16928 850.74432 465.5872zM473.65632 422.35392c-9.62048-9.61536-14.42304-21.62688-14.42304-36.02944 0-14.40768 4.80256-26.42432 14.42304-38.43072 12.01152-9.60512 24.01792-16.8192 38.42048-16.8192 14.40768 0 26.42432 7.21408 36.02432 16.8192 12.01152 12.0064 16.82432 24.02304 16.82432 38.43072 0 14.40256-4.80768 26.40896-16.82432 36.02944-9.6 12.01152-21.61664 16.80896-36.02432 16.80896C497.67424 439.16288 485.66272 434.36544 473.65632 422.35392zM89.34912 640.91648c-4.80768-2.39104-9.61024-4.79232-14.42304-12.0064C31.6928 556.8512 10.08128 472.78592 10.08128 381.52192c0-139.31008 50.44736-257.00864 148.91008-355.4816 43.24352-43.24352 88.87296-76.86656 139.3152-100.88448 64.8448-31.22176 136.90368-45.63456 216.17152-48.03584 117.69344 2.40128 220.96896 36.02944 307.45088 103.27552 16.80896 14.4128 33.61792 31.232 50.43712 45.6448 40.83712 40.82688 72.05888 86.46144 98.47808 134.49728 31.232 67.26656 48.03584 139.32032 48.03584 220.98432 0 122.496-38.43072 228.17792-112.88064 321.84832l0-2.4064c-12.01152 14.41792-21.62688 26.42432-33.63328 36.03456-98.46784 98.47808-218.56256 148.92032-357.88288 146.51392-98.47808 2.4064-184.9344-21.61664-261.80096-72.05888-7.19872-2.40128-9.61536-7.19872-12.01152-14.40768 0-7.20384 0-12.01664 2.39104-19.21024 4.80768-4.80768 9.61536-9.60512 16.8192-9.60512 4.80768-2.4064 12.01152 0 16.8192 2.40128 69.65248 45.63456 148.92032 67.24608 237.78304 64.8448 127.3088 2.40128 235.39712-43.22816 324.25984-132.10624l0 0c9.60512-9.60512 19.22048-21.61664 28.81536-31.21664 69.66272-84.06528 103.29088-180.1472 103.29088-290.63168 0-74.46016-14.41792-139.31008-45.63456-199.35744-19.21024-43.24352-50.44736-84.0704-86.4768-122.50112-14.4128-14.4128-31.232-28.8256-45.62944-40.83712l0 0c-79.2576-60.04736-172.93824-91.26912-278.62528-93.6704-69.65248 2.40128-136.89856 16.8192-194.55488 43.22816-48.03584 24.01792-88.87296 52.84864-127.29344 91.27936-88.87808 88.86272-134.50752 194.56-134.50752 321.85344 0 81.664 19.2256 158.52544 60.04736 223.37024 2.40128 7.21408 2.40128 12.01152 0 19.2256 0 4.79744-4.79744 9.60512-12.01152 14.4128C101.35552 640.91648 96.55296 640.91648 89.34912 640.91648zM514.47808 705.77664c-88.86272 0-163.328-31.21664-228.17792-93.6704-64.8448-64.85504-93.6704-139.3152-93.6704-228.17792 0-88.87808 28.8256-165.72928 93.6704-228.17792 64.84992-64.86016 139.31008-96.08192 228.17792-96.08192 88.86784 0 165.72928 31.22176 228.18304 96.08192 48.04096 45.63456 76.85632 100.86912 91.28448 163.32288 0 7.21408 0 12.01152-4.8128 19.22048-2.40128 7.20384-9.61536 9.60512-14.4128 9.60512-7.21408 2.40128-12.0064 0-19.22048-2.40128-4.79232-4.80768-7.19872-9.60512-9.58976-14.4128-9.61536-55.2448-36.02944-100.87424-76.86656-141.71136-52.84352-55.23968-117.70368-81.664-194.56-81.664-74.45504 0-139.3152 26.42432-194.55488 81.664-52.84352 52.84352-79.2576 117.68832-79.2576 194.56 0 74.45504 26.41408 139.29984 79.2576 194.55488 55.23968 52.83328 120.09984 79.2576 194.55488 79.2576 76.85632 0 141.71648-26.42432 194.56-79.2576 9.60512-9.62048 19.21024-21.62688 28.8256-31.23712 2.39104-4.79232 7.19872-7.19872 14.40256-9.6 7.20384 0 12.01152 2.40128 19.21024 4.8128 4.80768 4.79232 7.20896 9.6 7.20896 16.80384 2.4064 7.20896 0 12.01152-4.79232 16.8192-9.61536 12.01152-19.22048 24.01792-31.23712 36.02944C680.20736 674.56 603.34592 705.77664 514.47808 705.77664z"  horiz-adv-x="1024" />

    
    <glyph glyph-name="falv" unicode="&#59081;" d="M1038.779475 383.943111 880.898586 733.48396 880.898586 767.482828 591.203556 767.482828c0 49.550222-32.484848 85.347556-75.447596 85.347556-40.588929 0-75.439838-33.423515-75.439838-85.347556L158.001131 767.482828l-2.633697 0 0-39.598545L0.090505 383.943111c-0.055596 0.002586-0.091798 0.005172-0.090505 0.005172 0-0.067232 0.002586-0.134465 0.002586-0.201697l-0.002586-0.005172 0.002586 0c0.099556-101.815596 73.378909-194.488889 186.960162-194.488889 116.090828 0 186.83604 92.633212 186.962747 194.425535l0.002586 0-0.002586 0.007758c0 0.087919 0.002586 0.175838 0.002586 0.265051 0-0.002586-0.047838-0.005172-0.118949-0.007758L232.347152 698.38998l225.409293 0 0-663.249455L236.776727 35.140525c-84.736 0-120.175192-41.883152-120.175192-119.969616l805.697939 0c0 67.051313-34.522505 119.969616-120.192 119.969616l-117.70699 0-116.302869 0L568.097616 698.455919 806.619798 698.455919l-141.485253-314.512808c-0.103434 0.002586-0.169374 0.005172-0.156444 0.005172 0-101.898343 73.297455-194.697051 186.960162-194.697051 116.090828 0 186.828283 92.633212 186.957576 194.424242l0 0.005172c0 0.089212 0 0.179717 0 0.267636C1038.895838 383.945697 1038.854465 383.945697 1038.779475 383.943111zM293.090263 383.821576c-62.82602-0.032323-149.545374-0.032323-212.345535 0l106.250343 269.853737L293.090263 383.821576zM745.787475 383.821576l106.110707 269.853737 106.099071-269.853737C895.198384 383.791838 808.559192 383.791838 745.787475 383.821576z"  horiz-adv-x="1039" />

    
    <glyph glyph-name="gengduo" unicode="&#59044;" d="M516.297792 829.281903C272.858599 829.281903 74.750874 631.174178 74.750874 387.632657c0-243.439193 198.107725-441.649246 441.546917-441.649246 243.439193 0 441.546917 198.107725 441.546917 441.649246C957.947037 631.174178 759.839312 829.281903 516.297792 829.281903L516.297792 829.281903zM516.297792 7.994404c-209.363845 0-379.638253 170.274408-379.638253 379.638253 0 209.363845 170.274408 379.638253 379.638253 379.638253 209.261517 0 379.638253-170.274408 379.638253-379.638253C895.936045 178.37114 725.661637 7.994404 516.297792 7.994404L516.297792 7.994404zM325.250724 445.755171c-32.02878 0-58.122514-25.991406-58.122514-58.122514 0-32.131108 25.991406-58.122514 58.122514-58.122514 32.02878 0 58.122514 25.991406 58.122514 58.122514C383.373239 419.763765 357.279504 445.755171 325.250724 445.755171L325.250724 445.755171zM516.297792 445.755171c-32.02878 0-58.122514-25.991406-58.122514-58.122514 0-32.131108 25.991406-58.122514 58.122514-58.122514 32.131108 0 58.122514 25.991406 58.122514 58.122514C574.420306 419.763765 548.4289 445.755171 516.297792 445.755171L516.297792 445.755171zM707.447187 445.755171c-32.02878 0-58.122514-25.991406-58.122514-58.122514 0-32.131108 25.991406-58.122514 58.122514-58.122514 32.02878 0 58.122514 25.991406 58.122514 58.122514C765.569701 419.763765 739.475967 445.755171 707.447187 445.755171L707.447187 445.755171z"  horiz-adv-x="1024" />

    
    <glyph glyph-name="you" unicode="&#58903;" d="M703.245879 384 248.972917 838.272962c-13.20938 13.20938-13.20938 34.610623 0 47.820003s34.610623 13.20938 47.78587 0L774.958817 407.892935c13.243513-13.20938 13.243513-34.610623 0-47.78587L296.758787-118.092965c-13.20938-13.20938-34.610623-13.20938-47.78587 0-13.20938 13.243513-13.20938 34.610623 0 47.820003L703.245879 384z"  horiz-adv-x="1024" />

    
    <glyph glyph-name="zonghe" unicode="&#58971;" d="M417.392 768 183.652267 768C152.913067 768 128 743.086933 128 712.347733l0-233.739733c0-30.7392 24.913067-55.652267 55.652267-55.652267l233.739733 0c30.7392 0 55.652267 24.913067 55.652267 55.652267l0 233.739733C473.0432 743.086933 448.1312 768 417.392 768zM428.522667 478.608c0-6.152533-4.9792-11.130667-11.130667-11.130667L183.652267 467.477333c-6.152533 0-11.130667 4.9792-11.130667 11.130667L172.5216 712.347733c0 6.152533 4.9792 11.130667 11.130667 11.130667l233.739733 0c6.152533 0 11.130667-4.9792 11.130667-11.130667L428.522667 478.608zM417.392 345.0432 183.652267 345.0432c-30.7392 0-55.652267-24.912-55.652267-55.652267l0-233.738667c0-30.741333 24.913067-55.653333 55.652267-55.653333l233.739733 0c30.7392 0 55.652267 24.912 55.652267 55.652267l0 233.739733C473.0432 320.1312 448.1312 345.0432 417.392 345.0432zM428.522667 55.652267c0-6.152533-4.9792-11.130667-11.130667-11.130667L183.652267 44.5216c-6.152533 0-11.130667 4.978133-11.130667 11.130667L172.5216 289.390933c0 6.152533 4.9792 11.130667 11.130667 11.130667l233.739733 0c6.152533 0 11.130667-4.9792 11.130667-11.130667L428.522667 55.652267zM840.347733 768l-233.738667 0c-30.7392 0-55.652267-24.913067-55.652267-55.652267l0-233.739733c0-30.7392 24.912-55.652267 55.652267-55.652267l233.738667 0c30.7392 0 55.652267 24.913067 55.652267 55.652267l0 233.739733C896.001067 743.086933 871.086933 768 840.347733 768zM851.479467 478.608c0-6.152533-4.978133-11.130667-11.130667-11.130667L606.609067 467.477333c-6.152533 0-11.130667 4.9792-11.130667 11.130667l0 233.739733c0 6.152533 4.9792 11.130667 11.130667 11.130667l233.738667 0c6.152533 0 11.130667-4.9792 11.130667-11.130667L851.479467 478.608 851.479467 478.608zM840.347733 345.0432l-233.738667 0c-30.7392 0-55.652267-24.912-55.652267-55.652267l0-233.738667c0-30.740267 24.912-55.652267 55.652267-55.652267l233.738667 0C871.085867 0 896 24.912 896 55.652267l0 233.738667C896.001067 320.1312 871.086933 345.0432 840.347733 345.0432zM851.479467 55.652267c0-6.152533-4.978133-11.130667-11.130667-11.130667L606.609067 44.5216c-6.152533 0-11.130667 4.978133-11.130667 11.130667l0 233.739733c0 6.152533 4.9792 11.130667 11.130667 11.130667l233.738667 0c6.152533 0 11.130667-4.9792 11.130667-11.130667L851.479467 55.652267 851.479467 55.652267z"  horiz-adv-x="1024" />

    
    <glyph glyph-name="shuangren" unicode="&#58918;" d="M880.64 0h-122.88c7.68 10.24 10.24 20.48 10.24 33.28V204.8c0 17.92-2.56 35.84-7.68 51.2h35.84c69.12 0 125.44-58.88 125.44-130.56v-81.92c0-23.04-17.92-43.52-40.96-43.52zM409.6 588.8m-179.2 0a179.2 179.2 0 1 1 358.4 0 179.2 179.2 0 1 1-358.4 0ZM686.08 355.84c-28.16 20.48-46.08 53.76-46.08 92.16 0 64 51.2 115.2 115.2 115.2s115.2-51.2 115.2-115.2-51.2-115.2-115.2-115.2c-23.04 0-43.52 7.68-61.44 17.92-2.56 2.56-5.12 2.56-7.68 5.12zM256 332.8h307.2c84.48 0 153.6-69.12 153.6-153.6v-128c0-28.16-23.04-51.2-51.2-51.2H153.6c-28.16 0-51.2 23.04-51.2 51.2v128c0 84.48 69.12 153.6 153.6 153.6z"  horiz-adv-x="1024" />

    
    <glyph glyph-name="nengyuan" unicode="&#58981;" d="M558.79543 365.751782h464.954594v36.596426c0 131.287179-106.38961 237.676789-237.676789 237.67679-125.987697 0-228.977639-98.090421-237.076848-221.978323-5.199492 5.699443-11.598867 10.099014-18.898154 12.998731V896h-36.596427C362.414608 895.90001 256.024998 789.510399 256.024998 658.22322c0-125.987697 98.090421-228.977639 221.978322-237.076848-5.699443-5.199492-10.099014-11.598867-12.998731-18.898154H0.049995v-36.596426C0.049995 234.364613 106.439606 127.975002 237.726784 127.975002c125.987697 0 228.977639 98.090421 237.076848 221.978323 5.199492-5.699443 11.598867-10.099014 18.898155-12.998731v-464.954594h36.596426C661.585392-128 767.975002-21.61039 767.975002 109.676789c0 125.987697-98.090421 228.977639-221.978322 237.076848 5.499463 5.299482 9.999024 11.698858 12.79875 18.998145z"  horiz-adv-x="1024" />

    
    <glyph glyph-name="hezuo" unicode="&#58884;" d="M706.697815 793.238756l-144.22843-144.230237-173.06653 173.070143L0 432.675808l490.365103-490.368716 533.633091 533.631284L706.697815 793.238756zM749.97122 288.447378l-122.597146 122.597146-43.262569-43.262569 122.586309-122.598952-43.262569-43.260762-122.597146 122.597146-43.262569-43.282437 122.588115-122.577278-43.262569-43.284243-122.593534 122.598952-43.267987-43.262569 122.588115-122.597146-43.262569-43.264375L86.534168 432.675808 389.402854 735.553525l403.830935-403.82371L749.97122 288.447378zM836.496358 374.990577L605.740984 605.745951l101.336137 101.005599 230.385099-230.814979L836.496358 374.990577z"  horiz-adv-x="1028" />

    
    <glyph glyph-name="jingji" unicode="&#58920;" d="M923.8 85H496.9c-21.2-26.1-47.4-48.5-78.6-66h505.6c18.7 0 32.5 15 32.5 32.4-0.1 18.6-15.1 33.6-32.6 33.6z m-528 526.3h528.1c18.7 0 32.5 14.9 32.5 32.3s-15 32.3-32.5 32.3H395.8c-18.7 0-32.4-14.9-32.4-32.3-0.1-17.4 13.7-32.3 32.4-32.3z m528-428.1h-377c-6.2-23.6-15-44.8-27.5-65.9h404.5c18.7 0 32.5 14.9 32.5 32.3 0 18.7-15 33.6-32.5 33.6z m-395.7 66c0 126.9-103.6 230.2-231 230.2-127.3 0-231-103.3-231-230.2 0-126.9 103.6-230.2 231-230.2s231 103.3 231 230.2z m-99.9 2.5H312.1v-57.2h116.1v-28.6H312.1v-57.2h-27.5v57.2h-116v28.6h116.1v57.2H168.6v28.6h79.9l-51.2 68.4 23.7 17.5 51.2-68.4-23.7-17.5h97.4l-22.5 17.5 51.2 68.4 23.7-17.5-49.9-68.4h79.9l-0.1-28.6z m495.6 227.7H419.5c30-16.2 56.2-38.6 78.7-66h425.7c18.7 0 32.5 14.9 32.5 32.4-0.1 18.7-15.1 33.6-32.6 33.6z m0-197.8H553.1c1.3-11.2 2.5-21.2 2.5-32.4s-1.2-22.4-2.5-32.3h370.8c18.7 0 32.5 14.9 32.5 32.3-0.1 18.7-15.1 32.4-32.6 32.4z m0 296.1h-528c-18.7 0-32.4-14.9-32.4-32.3 0-18.7 15-32.4 32.4-32.4h528.1c18.7 0 32.5 15 32.5 32.4-0.1 17.4-15.1 32.3-32.6 32.3z m0-196.6H519.4c11.2-19.9 21.2-42.3 27.5-66h377c18.7 0 32.5 14.9 32.5 32.3-0.1 18.8-15.1 33.7-32.6 33.7z"  horiz-adv-x="1024" />

    
    <glyph glyph-name="ICONzuo" unicode="&#58954;" d="M307.2 384L773.389474 850.189474c10.778947 10.778947 10.778947 26.947368 0 37.726315s-26.947368 10.778947-37.726316 0l-485.052632-485.052631c-10.778947-10.778947-10.778947-26.947368 0-37.726316l485.052632-485.052631c5.389474-5.389474 13.473684-8.084211 18.863158-8.084211s13.473684 2.694737 18.863158 8.084211c10.778947 10.778947 10.778947 26.947368 0 37.726315L307.2 384z"  horiz-adv-x="1024" />

    
    <glyph glyph-name="arrow-l" unicode="&#58944;" d="M642.174 391.406c7.99-7.241 7.897-17.58-0.334-24.782l-309.222-270.569c-8.867-7.759-9.765-21.236-2.007-30.103 7.759-8.867 21.236-9.765 30.103-2.007l309.222 270.569c27.429 24 27.792 64.127 0.889 88.507l-309.833 280.786c-8.73 7.912-22.222 7.248-30.133-1.482-7.912-8.73-7.248-22.222 1.482-30.133l309.833-280.786z"  horiz-adv-x="1024" />

    
    <glyph glyph-name="duibi" unicode="&#58907;" d="M844.8 896H179.2C79.36 896 0 816.64 0 716.8v-665.6c0-99.84 79.36-179.2 179.2-179.2h665.6c99.84 0 179.2 79.36 179.2 179.2V716.8c0 99.84-79.36 179.2-179.2 179.2z m128-844.8c0-71.68-56.32-128-128-128H179.2c-71.68 0-128 56.32-128 128V716.8c0 71.68 56.32 128 128 128h665.6c71.68 0 128-56.32 128-128v-665.6zM709.12 486.4c-23.04 10.24-46.08 23.04-66.56 40.96-10.24 10.24-15.36 23.04-15.36 38.4 0 17.92 7.68 33.28 23.04 40.96 17.92 10.24 38.4 15.36 58.88 15.36 30.72 0 61.44-7.68 89.6-23.04v51.2c-25.6 10.24-56.32 15.36-84.48 12.8-38.4 2.56-74.24-7.68-102.4-28.16-25.6-17.92-38.4-46.08-38.4-76.8 0-20.48 5.12-40.96 17.92-56.32 20.48-23.04 48.64-40.96 76.8-53.76 20.48-10.24 38.4-20.48 56.32-30.72 10.24-5.12 17.92-12.8 23.04-23.04 5.12-7.68 7.68-17.92 7.68-28.16 0-38.4-28.16-58.88-81.92-58.88-20.48 0-38.4 2.56-56.32 10.24-17.92 5.12-33.28 12.8-48.64 25.6v-56.32c12.8-7.68 28.16-12.8 43.52-15.36 17.92-5.12 35.84-5.12 53.76-5.12 35.84-2.56 71.68 7.68 102.4 28.16 25.6 17.92 38.4 48.64 35.84 79.36 0 23.04-7.68 43.52-23.04 61.44-15.36 17.92-43.52 38.4-71.68 51.2zM378.88 271.36l143.36 386.56h-53.76l-107.52-302.08c-5.12-10.24-7.68-23.04-7.68-35.84-2.56 12.8-5.12 23.04-7.68 35.84L238.08 657.92H184.32l138.24-386.56h56.32zM742.4 102.4H281.6c-15.36 0-25.6-10.24-25.6-25.6s10.24-25.6 25.6-25.6h460.8c15.36 0 25.6 10.24 25.6 25.6s-10.24 25.6-25.6 25.6z"  horiz-adv-x="1024" />

    
    <glyph glyph-name="pingtaifangan" unicode="&#59082;" d="M908.8 824.32l-332.8-2.56H245.76c-66.56 0-120.32-51.2-120.32-117.76v-532.48h-5.12c-64 0-117.76-51.2-117.76-115.2s51.2-115.2 117.76-115.2H727.04c61.44 2.56 112.64 53.76 112.64 115.2l2.56 192V693.76H998.4c7.68 0 10.24 2.56 12.8 7.68 5.12 5.12 7.68 10.24 7.68 15.36 0 58.88-51.2 107.52-110.08 107.52zM120.32-23.04c-46.08 0-84.48 35.84-84.48 81.92 0 46.08 38.4 81.92 84.48 81.92h522.24c-20.48-20.48-33.28-48.64-33.28-81.92 0-30.72 12.8-61.44 35.84-81.92H120.32z m691.2 732.16v-455.68l-2.56-192c0-46.08-35.84-81.92-81.92-81.92-46.08 2.56-84.48 38.4-84.48 81.92 0 46.08 38.4 81.92 84.48 81.92 10.24 0 15.36 7.68 15.36 17.92 0 10.24-7.68 15.36-15.36 15.36H158.72V706.56c0 46.08 38.4 84.48 87.04 84.48H844.8c-20.48-23.04-33.28-51.2-33.28-81.92z m125.44 17.92H844.8c7.68 28.16 30.72 53.76 61.44 64h2.56c38.4 0 69.12-28.16 74.24-64h-46.08zM483.84 396.8h-161.28c-10.24 0-20.48-7.68-20.48-17.92 0-10.24 7.68-17.92 20.48-17.92h161.28c10.24 0 20.48 7.68 20.48 17.92 0 10.24-7.68 17.92-20.48 17.92zM601.6 529.92H322.56c-10.24 0-20.48-7.68-20.48-17.92 0-10.24 7.68-17.92 20.48-17.92h279.04c10.24 0 20.48 7.68 20.48 17.92-2.56 10.24-10.24 17.92-20.48 17.92zM302.08 642.56c0-10.24 7.68-17.92 20.48-17.92H691.2c10.24 0 20.48 7.68 20.48 17.92 0 10.24-7.68 17.92-20.48 17.92H322.56c-10.24 2.56-20.48-7.68-20.48-17.92z"  horiz-adv-x="1024" />

    
    <glyph glyph-name="zhishubaogao" unicode="&#59026;" d="M826.617537 675.833625L577.194838 426.704614l-29.577642 29.546943-177.754427 177.422876L97.767698 361.895563l1.006933 119.266337 271.146466 270.836405 29.585829-29.54899L577.136509 545.02644l190.253089 190.033078-84.482113 84.380805H892.252397v-209.104435l-65.63486 65.497737zM96.640014 192.005244h167.509085v-201.407126H96.640014v201.407126z m418.752246 83.627653h167.515225v-285.098224h-167.515225V275.632897z m-209.343889 83.626629h167.511132v-368.725876H306.048371V359.259526z m418.689825 125.475759H892.252397v-494.201635H724.738196V484.735285z"  horiz-adv-x="1024" />

    
    <glyph glyph-name="chaxun" unicode="&#59128;" d="M229.836 718.808h461.986v-57.748H229.836v57.748zM228.297 602.745h461.985v-57.748H228.297v57.748zM114.341 835.246h692.977V373.26h57.748V835.246c0 31.893-25.855 57.748-57.748 57.748H114.34c-31.893 0-57.748-25.855-57.748-57.748v-808.473c0-31.893 25.855-57.748 57.748-57.748h404.237v57.748H114.34V835.246zM229.451 371.759v-57.748h140.453c0 20.068 2.94 39.447 8.386 57.748H229.451zM465.562 487.255H228.297v-57.748H403.84a203.177 203.177 0 0 0 61.722 57.748zM902.808 22.478L770.39 153.322c30.444 35.382 48.852 81.417 48.852 131.754 0 111.627-90.493 202.119-202.117 202.119-111.626 0-202.118-90.492-202.118-202.119 0-111.624 90.492-202.118 202.118-202.118 40.412 0 78.05 11.867 109.63 32.299l135.218-133.614c11.276-11.276 29.558-11.276 40.834 0 11.274 11.277 11.274 29.558 0 40.835zM472.754 285.076c0 79.734 64.639 144.37 144.372 144.37 79.731 0 144.369-64.636 144.369-144.37 0-79.731-64.638-144.37-144.37-144.37s-144.37 64.639-144.37 144.37z"  horiz-adv-x="1045" />

    
    <glyph glyph-name="jiarenic-dynamic" unicode="&#59315;" d="M550.4 71.584c-24.736 57.536-53.216 158.016 2.88 237.376 1.216 0.96 2.08 1.792 3.072 2.656A176.864 176.864 0 0 1 627.2 438.4c0.512 5.568 1.216 11.072 1.216 16.768V559.936C628.416 657.024 552.704 736 459.68 736c-93.024 0-168.736-78.976-168.736-176.064v-104.736c0-60.16 29.12-113.312 73.344-145.088a911.264 911.264 0 0 1-158.08-53.28C179.84 245.76 160 214.912 160 185.088v-113.76c0-3.52 0.544-6.976 1.632-10.304 8.64-26.432 31.936-44.16 58.016-44.16h309.664a29.76 29.76 0 0 1 19.68 7.936c6.592 5.888 11.04 14.304 11.04 24.064 0 0.768-0.448 2.048-0.704 3.136a69.664 69.664 0 0 1-8.928 19.584M804.48 170.752h-39.296V128c0-12.384-9.6-22.4-21.504-22.4a21.952 21.952 0 0 0-21.504 22.4v42.752H681.6a21.952 21.952 0 0 0-21.504 22.4c0 12.384 9.6 22.4 21.504 22.4h40.576V256c0 12.384 9.6 22.4 21.504 22.4 11.904 0 21.504-10.016 21.504-22.4v-40.448h39.296c11.904 0 21.504-10.016 21.504-22.4 0-12.384-9.6-22.4-21.504-22.4m-16.064 207.296A176.64 176.64 0 0 1 743.68 384c-101.632 0-184.32-86.08-184.32-192 0-105.888 82.688-192 184.32-192 15.456 0 30.4 2.24 44.736 5.952C868.48 26.88 928 102.208 928 192s-59.52 165.152-139.584 186.048"  horiz-adv-x="1024" />

    
    <glyph glyph-name="shanchu" unicode="&#59047;" d="M819.28704-74.41792C567.3024-74.41792 362.24 130.64448 362.24 382.63296 362.24 634.6176 567.3024 839.68 819.28704 839.68c251.98464 0 457.04704-205.0624 457.04704-457.04704 0.06784-251.98848-204.99456-457.05088-457.04704-457.05088z m0 878.9696c-232.6528 0-421.92-189.2672-421.92-421.92 0-232.58752 189.2672-421.92256 421.92-421.92256s421.92256 189.26976 421.92256 421.92256c0 232.6528-189.26976 421.92-421.92256 421.92zM672.06912 205.92768l-29.4272 29.42464 323.968 323.968 29.42464-29.42592-323.96544-323.96672zM995.97952 235.38048l-29.4272-29.42848L642.58688 529.92l29.42592 29.42592 323.96672-323.96544z"  horiz-adv-x="1638" />

    
    <glyph glyph-name="gerenzhongxintuichu" unicode="&#59064;" d="M580.608-1.746824H85.172706V750.592h495.435294v-201.848471h55.055059V721.227294A84.419765 84.419765 0 0 1 551.243294 805.647059h-436.705882A84.419765 84.419765 0 0 1 30.117647 721.227294v-693.609412a84.419765 84.419765 0 0 1 84.419765-84.419764h436.705882a84.419765 84.419765 0 0 1 84.419765 84.419764v172.483765h-55.055059v-201.848471z m192.692706 596.751059l-38.912-38.942117 154.112-154.112H507.181176v-55.055059h381.289412l-154.112-154.112 38.912-38.942118L993.882353 374.422588l-220.581647 220.581647z"  horiz-adv-x="1024" />

    
    <glyph glyph-name="zhankai" unicode="&#58906;" d="M97.5 654.7c0-6.9 2.2-12.5 6.7-17s10.1-6.7 17-6.7h781.7c6.9 0 12.5 2.2 17 6.7s6.7 10.1 6.7 17v51.5c0 6.9-2.2 12.5-6.7 17s-10.1 6.7-17 6.7H121.2c-6.9 0-12.5-2.2-17-6.7s-6.7-10.1-6.7-17v-51.5z m822.4-228c-4.5 4.5-10.1 6.7-17 6.7H121.2c-6.9 0-12.5-2.2-17-6.7s-6.7-10.1-6.7-17v-51.5c0-6.9 2.2-12.5 6.7-17s10.1-6.7 17-6.7h781.7c6.9 0 12.5 2.2 17 6.7s6.7 10.1 6.7 17v51.5c-0.1 6.9-2.3 12.6-6.7 17z m6.6-313.4c0 6.9-2.2 12.5-6.7 17s-10.1 6.7-17 6.7H121.1c-6.9 0-12.5-2.2-17-6.7s-6.7-10.1-6.7-17v-51.5c0-6.9 2.2-12.5 6.7-17s10.1-6.7 17-6.7h781.7c6.9 0 12.5 2.2 17 6.7s6.7 10.1 6.7 17v51.5z"  horiz-adv-x="1024" />

    
    <glyph glyph-name="xingsvg" unicode="&#58889;" d="M825.386667 764.586667a440.32 440.32 0 0 1-627.370667 0 449.194667 449.194667 0 0 1-46.08-577.194667 443.733333 443.733333 0 0 1 204.8-158.037333l129.365333-129.706667 25.941334-27.648 27.306666 27.989333 19.797334 19.797334 109.226666 109.568a448.853333 448.853333 0 0 1 157.013334 735.232z m-102.4-265.898667L614.442667 418.133333l40.96-126.293333a23.210667 23.210667 0 0 0-36.181334-24.917333L512.042667 345.429333l-107.52-79.872a23.210667 23.210667 0 0 0-34.133334 25.941334L409.642667 418.133333l-107.52 80.213334a23.552 23.552 0 0 0 14.677333 42.325333h132.437333l41.642667 128.341333a22.528 22.528 0 0 0 43.349333 0l40.96-128.341333h133.802667a23.210667 23.210667 0 0 0 12.970667-41.984z"  horiz-adv-x="1024" />

    
    <glyph glyph-name="shouye" unicode="&#59253;" d="M975.262474 450.809319c0-41.160684-33.379062-74.539746-74.539746-74.539746h-24.880712v-348.022798c0-13.720228-11.160484-24.880712-24.880712-24.880712H602.358964c-13.720228 0-24.880712 11.160484-24.880712 24.880712V152.547945c0 27.440456-22.218578 49.761424-49.761424 49.761424-27.440456 0-49.761424-22.218578-49.761424-49.761424V28.246775c0-13.720228-11.160484-24.880712-24.880711-24.880712H204.677132c-13.720228 0-24.880712 11.160484-24.880712 24.880712V376.269573h-24.880712c-41.160684 0-74.539746 33.379062-74.539746 74.539746 0 43.208479 41.467853 66.655734 43.413259 67.577242l389.285871 275.428457c0.409559 0.307169 1.023898 0.409559 1.433457 0.716729 1.023898 0.614339 2.150185 0.921508 3.276472 1.433456 1.843016 0.819118 3.583642 1.638236 5.529048 1.945406 1.535846 0.307169 2.969303 0.10239 4.505149 0.204779 1.535846 0 3.071693 0.10239 4.50515-0.204779 1.945405-0.307169 3.686031-1.126287 5.529047-1.945406 1.126287-0.511949 2.252575-0.819118 3.276472-1.433456 0.511949-0.307169 1.023898-0.307169 1.433457-0.716729l389.285871-275.428457c1.945405-0.921508 43.413259-25.80222 43.413259-67.577242z m-74.539746 29.795421L527.819218 744.360764 154.915708 480.60474S130.034997 468.625137 130.034997 450.809319c0-13.720228 11.160484-24.880712 24.880711-24.880712h49.761424c13.720228 0 24.880712-11.160484 24.880712-24.880712v-348.022798h198.840916v99.420458c0 54.880912 44.539546 99.420458 99.420458 99.420458 54.880912 0 99.420458-44.539546 99.420458-99.420458v-99.420458h198.840916v348.125188c0 13.720228 11.160484 24.880712 24.880712 24.880712h49.761424c13.720228 0 24.880712 11.160484 24.880712 24.880712-0.10239 16.894311-24.880712 29.693031-24.880712 29.693031z"  horiz-adv-x="1024" />

    
    <glyph glyph-name="maoyi" unicode="&#58890;" d="M1230.229809 384.570317c-33.746428-0.32666-199.207949 95.234892-204.429161 100.212446-12.569731 11.980671-7.818429 26.901286 5.001653 28.940237 12.822759 2.040289 84.828616 10.600397 84.828616 10.600397C1071.380483 642.601234 972.631315 737.06901 843.023449 767.68405c-206.84966 48.885263-420.765359-89.782073-468.045434-301.407133-0.408325-1.804665-3.263926-23.381655-20.394854-22.696204-11.60046 0.460538-49.59749 15.568581-63.335969 22.016107-15.683715 7.352536-19.924945 5.454158-15.165611 29.129004C329.882816 763.766803 605.414162 945.086079 869.872524 883.04738 1089.344127 831.572932 1241.804832 641.127246 1258.555549 424.141742c2.806066-29.080807-12.002092-39.409434-28.32574-39.56607v-0.005355zM884.807865 325.600084c21.726932 0 39.33714-17.592804 39.337141-39.331786 0-21.70819-17.610208-39.33714-39.337141-39.33714h-78.671603v-49.17176c0-27.158331-22.01343-49.170422-49.174438-49.170422-27.156992 0-49.167744 22.010752-49.167744 49.170422v49.17176h-78.674281c-21.724255 0-39.33714 17.634306-39.33714 39.33714 0 21.744336 17.612886 39.331785 39.33714 39.331786h78.674281v39.342495h-78.674281c-21.724255 0-39.33714 17.628951-39.33714 39.330447 0 21.745675 17.612886 39.33714 39.33714 39.33714h78.674281v2.69361l-87.297312 87.275891c-15.469512 15.480222-15.469512 40.566133 0 56.03029 15.468173 15.464156 40.544713 15.458801 56.018241 0l79.788139-79.766719 80.094718 80.090702c15.472189 15.442736 40.544713 15.442736 56.022257 0 15.469512-15.478883 15.469512-40.566133 0-56.024935l-86.282522-86.282522v-4.016317h78.671603c21.726932 0 39.33714-17.591465 39.337141-39.33714 0-21.701496-17.610208-39.330447-39.337141-39.330447h-78.671603v-39.33714h78.671603v-0.005355z m-394.637883-55.50683c17.252756-11.032821 13.09453-33.197532-5.867838-35.169543-18.962368-1.970673-78.348959-7.201255-78.348959-7.201255 47.076582-110.328208 142.48953-197.322958 265.861395-226.455978 206.853676-48.865181 418.395733 83.088213 465.686518 294.718628 0.97061 4.345654 0.935802 3.660203 2.630687 12.984751 1.692208 9.319193 4.432674 23.503483 22.643992 17.189833 18.212656-6.31231 62.62642-19.370693 76.46129-23.067043 13.837548-3.69635 12.279218-9.157201 10.548186-22.010752-0.526137-3.911892-1.328062-7.494446-2.15944-11.252379-61.918209-275.171216-331.427759-446.828574-601.965485-383.346679-219.21322 51.416881-371.586905 241.440853-388.636167 458.101035-2.310721 37.229913 23.993473 44.828784 50.878694 30.602991 21.153938-11.185441 165.003661-94.05945 182.261772-105.093609h0.005355z m0 0"  horiz-adv-x="1517" />

    


  </font>
</defs>
</svg>
